<?xml version="1.0" encoding="utf-8"?>
<!-- Generator: Adobe Illustrator 23.0.1, SVG Export Plug-In . SVG Version: 6.00 Build 0)  -->
<svg version="1.1" id="Layer_1" xmlns="http://www.w3.org/2000/svg" xmlns:xlink="http://www.w3.org/1999/xlink" x="0px" y="0px"
	 viewBox="0 0 1366 768" style="enable-background:new 0 0 1366 768;" xml:space="preserve">
<style type="text/css">
	.st0{fill:#F16522;}
	.st1{fill:#EEA616;}
	.st2{fill:#5B57A4;}
	.st3{fill:#009182;}
	.st4{fill:#231F20;}
</style>
<g>
	<g>
		<path class="st0" d="M105.7,308.2c19.5-19.5,46.4-31.5,76.2-31.5c29.7,0,56.5,12,76,31.4l0.1-71.7c-22.8-11.7-48.7-18.4-76.1-18.4
			c-27.4,0-53.4,7.5-76.2,19.2L105.7,308.2z"/>
		<path class="st1" d="M258,460.4c-19.5,19.5-46.4,31.5-76.1,31.5c-29.7,0-56.5-12-76-31.4l-0.1,71.7c22.8,11.7,48.7,18.4,76.1,18.4
			s53.3-6.6,76.1-18.4L258,460.4z"/>
		<path class="st2" d="M105.9,460.5c-19.5-19.5-31.6-46.4-31.6-76.1c0-29.7,12-56.5,31.4-76L34,308.3
			c-11.7,22.8-18.4,48.7-18.4,76.1c0,27.4,6.6,53.3,18.4,76.1L105.9,460.5z"/>
		<path class="st3" d="M257.9,308.1c19.5,19.5,31.5,46.4,31.5,76.2c0,29.7-12,56.5-31.4,76l71.7,0.1c11.7-22.8,18.4-48.7,18.4-76.1
			c0-27.4-6.6-53.3-18.4-76.1L257.9,308.1z"/>
	</g>
	<path class="st4" d="M419.1,384.3c0-44.4,32.2-77.2,76.8-77.2c44.6,0,76.8,32.8,76.8,77.2s-32.2,77.2-76.8,77.2
		C451.3,461.5,419.1,428.8,419.1,384.3z M554,384.3c0-33.8-23.7-61-58.1-61c-34.5,0-58.1,27.2-58.1,61s23.6,61,58.1,61
		C530.4,445.4,554,418.2,554,384.3z"/>
	<path class="st4" d="M592.9,358.4h16.4v14.3h0.4c9.1-10.5,21.1-16.9,35.4-16.9c31,0,51.9,21.9,51.9,51.9
		c0,29.5-21.7,51.9-49.3,51.9c-17.7,0-31.8-8.9-38-20h-0.4v64.1h-16.4L592.9,358.4L592.9,358.4z M644.3,444.4c21.3,0,35-16,35-36.7
		c0-20.7-13.7-36.7-35-36.7c-21.3,0-35,16-35,36.7C609.3,428.4,623,444.4,644.3,444.4z"/>
	<path class="st4" d="M806.4,439.2c-11.6,15-25.5,20.5-43.9,20.5c-31,0-50-23.2-50-51.9c0-30.6,21.5-51.9,50.6-51.9
		c27.8,0,46.8,19,46.8,51.7v5.3h-79.7c1.3,17.1,14.3,31.6,32.2,31.6c14.1,0,23.6-5.1,31.4-15L806.4,439.2z M792.3,398.9
		c-0.6-16.6-11.6-27.8-29.7-27.8c-18.1,0-30.1,11.2-32.2,27.8H792.3z"/>
	<path class="st4" d="M831.3,381.8c0-9.1-0.8-16.9-0.8-23.4H846c0,5.3,0.4,10.7,0.4,16.2h0.4c4.4-9.7,16.7-18.8,32.9-18.8
		c25.9,0,37.5,16.5,37.5,40.3v60.9h-16.4v-59.2c0-16.5-7.2-26.8-22.6-26.8c-21.3,0-30.6,15.4-30.6,38v48h-16.4L831.3,381.8
		L831.3,381.8z"/>
	<path class="st4" d="M952.6,310.9h25.9l49.8,115.2h0.4l50.2-115.2h25.3v146.9h-17.4V334.5h-0.4l-52.7,123.3h-10.6l-52.7-123.3H970
		v123.3h-17.4L952.6,310.9L952.6,310.9z"/>
	<path class="st4" d="M1140.9,310.9h37.6c28.4,0,58.5,4.1,58.5,40.5c0,21.4-13.9,35.3-36.7,38.8l41.7,67.7h-21.4l-39.9-66h-22.4v66
		h-17.4L1140.9,310.9L1140.9,310.9z M1158.3,375.6h15.6c19.3,0,44.4,0,44.4-24.3c0-21.2-18.5-24.3-35.5-24.3h-24.5L1158.3,375.6
		L1158.3,375.6z"/>
	<path class="st4" d="M1335.2,336.8c-5.8-9.3-16.2-13.5-26.8-13.5c-15.4,0-31.3,7.3-31.3,24.7c0,13.5,7.5,19.5,30.9,27
		c22.8,7.3,44,14.7,44,43.6c0,29.3-25.1,43-51.7,43c-17,0-35.3-5.6-45.3-20.4L1270,429c6.2,10.8,18.7,16.4,31.3,16.4
		c14.9,0,32-8.7,32-25.5c0-18.1-12.2-21.2-38.4-29.9c-20.8-6.9-36.5-16-36.5-40.5c0-28.2,24.3-42.3,50-42.3
		c16.4,0,30.3,4.6,41.1,17.2L1335.2,336.8z"/>
	<path class="st4" d="M668.9,504.2h5.5l10.6,24.5h0.1l10.7-24.5h5.4v31.2h-3.7v-26.2h-0.1l-11.2,26.2h-2.2l-11.2-26.2h-0.1v26.2
		h-3.7L668.9,504.2L668.9,504.2z"/>
	<path class="st4" d="M717.3,504.2h19.6v3.4H721v9.8h14.9v3.4H721V532h16.7v3.4h-20.4V504.2z"/>
	<path class="st4" d="M750.3,504.2h12c6.1,0,15.3,4.1,15.3,15.6s-9.2,15.6-15.3,15.6h-12V504.2z M754.1,532h7
		c7.2,0,12.6-3.6,12.6-12.2c0-8.6-5.4-12.2-12.6-12.2h-7V532z"/>
	<path class="st4" d="M789.3,504.2h3.7v31.2h-3.7V504.2z"/>
	<path class="st4" d="M828.4,510.6c-1.8-2.5-4.8-3.8-7.8-3.8c-7,0-11.9,6.1-11.9,13c0,7.2,4.9,13,11.9,13c3.8,0,6.8-1.5,9-4.4
		l2.8,2.3c-2.8,3.8-6.8,5.5-11.8,5.5c-9,0-15.9-6.9-15.9-16.4c0-9.2,6.6-16.4,15.9-16.4c4.2,0,8.4,1.5,11,4.9L828.4,510.6z"/>
	<path class="st4" d="M851.7,504.2h3.5l13.3,31.2h-4.3l-3.2-7.7h-15.6l-3.2,7.7h-4.2L851.7,504.2z M853.3,509L853.3,509l-6.6,15.3
		h12.7L853.3,509z"/>
	<path class="st4" d="M878.3,504.2h3.7V532h14.3v3.4h-18L878.3,504.2L878.3,504.2z"/>
	<path class="st4" d="M924,504.2h8c6,0,12.4,0.9,12.4,8.6c0,4.5-3,7.5-7.8,8.2l8.9,14.4H941l-8.5-14h-4.8v14H924L924,504.2
		L924,504.2z M927.8,518h3.3c4.1,0,9.4,0,9.4-5.2c0-4.5-3.9-5.2-7.5-5.2h-5.2V518z"/>
	<path class="st4" d="M957.6,504.2h19.6v3.4h-15.9v9.8h14.8v3.4h-14.8V532H978v3.4h-20.4V504.2z"/>
	<path class="st4" d="M1011.3,510.6c-1.8-2.5-4.8-3.8-7.8-3.8c-7,0-11.9,6.1-11.9,13c0,7.2,4.9,13,11.9,13c3.8,0,6.8-1.5,9-4.4
		l2.8,2.3c-2.8,3.8-6.8,5.5-11.8,5.5c-9,0-15.9-6.9-15.9-16.4c0-9.2,6.6-16.4,15.9-16.4c4.2,0,8.4,1.5,11,4.9L1011.3,510.6z"/>
	<path class="st4" d="M1022.7,519.8c0-9.4,6.8-16.4,16.3-16.4s16.3,7,16.3,16.4c0,9.4-6.8,16.4-16.3,16.4
		C1029.5,536.2,1022.7,529.3,1022.7,519.8z M1051.3,519.8c0-7.2-5-13-12.3-13s-12.3,5.8-12.3,13s5,13,12.3,13
		C1046.3,532.8,1051.3,527,1051.3,519.8z"/>
	<path class="st4" d="M1066.1,504.2h8c6.1,0,12.4,0.9,12.4,8.6c0,4.5-2.9,7.5-7.8,8.2l8.9,14.4h-4.6l-8.5-14h-4.8v14h-3.7
		L1066.1,504.2L1066.1,504.2z M1069.8,518h3.3c4.1,0,9.4,0,9.4-5.2c0-4.5-3.9-5.2-7.5-5.2h-5.2V518z"/>
	<path class="st4" d="M1098.2,504.2h12c6.1,0,15.3,4.1,15.3,15.6s-9.2,15.6-15.3,15.6h-12V504.2z M1101.9,532h7.1
		c7.1,0,12.6-3.6,12.6-12.2c0-8.6-5.4-12.2-12.6-12.2h-7.1V532z"/>
	<path class="st4" d="M1170,509.7c-1.2-2-3.4-2.9-5.7-2.9c-3.3,0-6.7,1.5-6.7,5.2c0,2.9,1.6,4.1,6.6,5.7c4.9,1.5,9.3,3.1,9.3,9.3
		c0,6.2-5.3,9.1-11,9.1c-3.6,0-7.5-1.2-9.6-4.3l3.2-2.6c1.3,2.3,4,3.5,6.7,3.5c3.2,0,6.8-1.8,6.8-5.4c0-3.8-2.6-4.5-8.2-6.3
		c-4.4-1.5-7.8-3.4-7.8-8.6c0-6,5.2-9,10.6-9c3.5,0,6.4,1,8.7,3.7L1170,509.7z"/>
	<path class="st4" d="M1191,522l-11.6-17.8h4.7l8.8,14.1l9-14.1h4.5l-11.6,17.8v13.4h-3.7V522z"/>
	<path class="st4" d="M1228.6,509.7c-1.2-2-3.4-2.9-5.7-2.9c-3.3,0-6.7,1.5-6.7,5.2c0,2.9,1.6,4.1,6.6,5.7c4.8,1.5,9.3,3.1,9.3,9.3
		c0,6.2-5.3,9.1-11,9.1c-3.6,0-7.5-1.2-9.6-4.3l3.2-2.6c1.3,2.3,4,3.5,6.7,3.5c3.2,0,6.8-1.8,6.8-5.4c0-3.8-2.6-4.5-8.2-6.3
		c-4.4-1.5-7.8-3.4-7.8-8.6c0-6,5.2-9,10.6-9c3.5,0,6.4,1,8.7,3.7L1228.6,509.7z"/>
	<path class="st4" d="M1262.3,507.7H1252v27.8h-3.7v-27.8H1238v-3.4h24.3L1262.3,507.7L1262.3,507.7z"/>
	<path class="st4" d="M1271.5,504.2h19.6v3.4h-15.9v9.8h14.8v3.4h-14.8V532h16.7v3.4h-20.4L1271.5,504.2L1271.5,504.2z"/>
	<path class="st4" d="M1303.4,504.2h5.5l10.6,24.5h0.1l10.7-24.5h5.4v31.2h-3.7v-26.2h-0.1l-11.2,26.2h-2.3l-11.2-26.2h-0.1v26.2
		h-3.7L1303.4,504.2L1303.4,504.2z"/>
</g>
</svg>
